<svg xmlns="http://www.w3.org/2000/svg" width="512" height="512" viewBox="0 0 512 512"><path d="M 49.4,44.6 L 49.3,54.0 L 42.8,60.7 L 35.4,65.3 L 26.8,69.8 L 17.9,66.1 L 9.0,62.5 L 3.0,54.5 L 3.2,44.6 L 1.6,34.2 L 11.2,29.0 L 16.7,20.2 L 26.8,20.2 L 36.1,22.1 L 45.2,26.2 L 51.5,34.4 L 51.6,44.6 Z" fill="none" stroke="#9aa0a6" stroke-opacity="0.18" stroke-width="1" /><path d="M 72.7,44.6 L 70.4,62.7 L 65.2,83.1 L 46.2,91.4 L 26.8,101.0 L 9.9,85.5 L -4.8,76.2 L -18.3,63.3 L -20.9,44.6 L -16.1,26.9 L -13.1,4.7 L 6.2,-5.0 L 26.8,-6.1 L 46.5,-3.0 L 61.7,9.7 L 68.9,27.2 L 81.2,44.6 Z" fill="none" stroke="#9aa0a6" stroke-opacity="0.18" stroke-width="1" /><path d="M 92.6,44.6 L 92.8,72.0 L 80.9,98.7 L 53.5,109.0 L 26.8,117.8 L -1.4,112.7 L -21.4,92.8 L -42.5,73.3 L -53.0,44.6 L -46.9,14.1 L -24.7,-6.9 L -4.1,-29.9 L 26.8,-30.6 L 52.3,-16.8 L 74.2,-2.7 L 100.3,14.2 L 101.0,44.6 Z" fill="none" stroke="#9aa0a6" stroke-opacity="0.18" stroke-width="1" /><path d="M 127.7,44.6 L 120.2,83.3 L 97.2,115.0 L 66.7,140.8 L 26.8,148.8 L -16.0,147.9 L -39.2,110.7 L -74.2,86.5 L -71.4,44.6 L -62.1,7.8 L -42.3,-24.5 L -10.7,-46.0 L 26.8,-59.3 L 69.2,-57.6 L 101.3,-29.8 L 131.3,1.4 L 138.8,44.6 Z" fill="none" stroke="#9aa0a6" stroke-opacity="0.18" stroke-width="1" /><path d="M 288.5,285.0 L 286.2,293.9 L 280.8,301.2 L 272.6,304.2 L 264.6,309.0 L 255.2,307.7 L 247.3,302.3 L 240.1,295.1 L 240.9,285.0 L 241.7,275.5 L 246.5,266.8 L 255.7,263.5 L 264.6,262.1 L 274.4,261.4 L 280.2,269.4 L 287.9,275.3 L 290.5,285.0 Z" fill="none" stroke="#9aa0a6" stroke-opacity="0.18" stroke-width="1" /><path d="M 313.5,285.0 L 306.9,302.5 L 300.5,320.8 L 283.2,329.9 L 264.6,327.2 L 248.2,324.6 L 233.4,316.2 L 226.0,301.0 L 218.2,285.0 L 219.7,266.4 L 232.8,253.1 L 245.5,238.9 L 264.6,234.9 L 283.0,240.7 L 298.9,250.7 L 311.3,265.6 L 314.4,285.0 Z" fill="none" stroke="#9aa0a6" stroke-opacity="0.18" stroke-width="1" /><path d="M 339.5,285.0 L 335.3,314.2 L 320.4,340.8 L 293.2,353.9 L 264.6,364.2 L 236.5,352.9 L 217.9,331.7 L 201.6,311.1 L 199.5,285.0 L 197.8,257.3 L 210.1,230.5 L 237.1,218.6 L 264.6,207.6 L 289.5,225.0 L 317.2,232.4 L 327.8,258.8 L 339.2,285.0 Z" fill="none" stroke="#9aa0a6" stroke-opacity="0.18" stroke-width="1" /><path d="M 362.4,285.0 L 351.8,321.1 L 335.8,356.1 L 296.1,360.9 L 264.6,389.7 L 225.9,378.4 L 190.5,359.1 L 174.5,322.3 L 168.3,285.0 L 177.3,248.8 L 192.8,213.1 L 227.2,194.6 L 264.6,190.4 L 300.9,197.3 L 328.6,221.0 L 343.7,252.2 L 351.1,285.0 Z" fill="none" stroke="#9aa0a6" stroke-opacity="0.18" stroke-width="1" /><path d="M 244.2,182.5 L 243.9,191.1 L 238.8,198.1 L 230.8,200.9 L 223.2,204.1 L 215.2,201.9 L 207.6,198.2 L 203.0,190.9 L 204.1,182.5 L 200.6,173.1 L 206.5,165.7 L 215.0,162.6 L 223.2,163.2 L 232.3,160.6 L 238.3,167.5 L 242.3,174.6 L 247.0,182.5 Z" fill="none" stroke="#9aa0a6" stroke-opacity="0.18" stroke-width="1" /><path d="M 264.9,182.5 L 268.2,201.1 L 251.8,211.1 L 239.3,221.3 L 223.2,230.2 L 207.4,220.7 L 193.7,212.1 L 185.2,198.3 L 178.2,182.5 L 179.8,164.5 L 194.9,154.2 L 207.2,143.9 L 223.2,138.9 L 239.2,143.9 L 256.4,149.4 L 265.4,165.0 L 267.2,182.5 Z" fill="none" stroke="#9aa0a6" stroke-opacity="0.18" stroke-width="1" /><path d="M 293.6,182.5 L 283.4,207.4 L 269.3,228.6 L 249.0,244.6 L 223.2,246.3 L 197.1,245.5 L 178.0,227.7 L 161.1,208.2 L 164.3,182.5 L 164.8,158.3 L 177.2,136.4 L 198.3,122.3 L 223.2,116.3 L 248.9,120.7 L 273.0,132.7 L 281.7,158.3 L 293.1,182.5 Z" fill="none" stroke="#9aa0a6" stroke-opacity="0.18" stroke-width="1" /><path d="M 313.5,182.5 L 302.2,215.2 L 291.2,250.5 L 255.8,261.1 L 223.2,270.4 L 190.8,260.8 L 165.1,240.7 L 138.8,217.5 L 130.8,182.5 L 139.0,147.6 L 160.7,120.0 L 188.2,97.9 L 223.2,84.4 L 256.4,102.5 L 283.5,122.3 L 306.0,148.2 L 317.9,182.5 Z" fill="none" stroke="#9aa0a6" stroke-opacity="0.18" stroke-width="1" /><path d="M 332.3,182.5 L 324.3,224.4 L 295.3,254.6 L 263.3,279.3 L 223.2,288.8 L 178.9,289.5 L 141.0,264.8 L 113.5,228.0 L 120.6,182.5 L 134.8,145.9 L 142.1,101.4 L 179.5,76.9 L 223.2,61.0 L 265.8,79.7 L 299.1,106.6 L 327.5,139.3 L 335.5,182.5 Z" fill="none" stroke="#9aa0a6" stroke-opacity="0.18" stroke-width="1" /><path d="M 427.9,42.9 L 426.2,49.2 L 422.6,54.5 L 417.0,57.1 L 411.1,60.8 L 404.5,58.8 L 400.2,53.8 L 396.7,48.9 L 396.7,42.9 L 396.5,36.9 L 399.5,31.3 L 405.3,28.9 L 411.1,26.4 L 417.1,28.4 L 421.2,32.9 L 426.7,36.5 L 426.5,42.9 Z" fill="none" stroke="#9aa0a6" stroke-opacity="0.18" stroke-width="1" /><path d="M 444.2,42.9 L 444.3,56.7 L 433.9,65.7 L 423.7,73.2 L 411.1,73.6 L 398.7,72.9 L 385.4,68.7 L 380.3,55.7 L 375.8,42.9 L 379.8,30.0 L 387.6,19.4 L 400.0,16.1 L 411.1,7.0 L 424.0,11.9 L 434.6,19.5 L 443.1,29.7 L 447.0,42.9 Z" fill="none" stroke="#9aa0a6" stroke-opacity="0.18" stroke-width="1" /><path d="M 462.9,42.9 L 453.0,60.3 L 445.9,77.8 L 429.7,87.8 L 411.1,89.1 L 394.4,83.3 L 376.3,77.7 L 368.9,60.4 L 364.7,42.9 L 364.7,23.7 L 378.5,10.3 L 392.7,-1.5 L 411.1,-3.0 L 427.5,3.3 L 443.9,10.2 L 458.6,23.3 L 463.8,42.9 Z" fill="none" stroke="#9aa0a6" stroke-opacity="0.18" stroke-width="1" /><path d="M 476.5,42.9 L 476.1,69.9 L 461.5,93.4 L 438.5,109.0 L 411.1,116.2 L 385.7,104.4 L 368.7,85.3 L 349.1,68.6 L 346.9,42.9 L 351.3,18.2 L 363.4,-4.7 L 384.7,-20.9 L 411.1,-23.6 L 436.5,-18.3 L 458.0,-3.9 L 464.8,20.7 L 468.0,42.9 Z" fill="none" stroke="#9aa0a6" stroke-opacity="0.18" stroke-width="1" /><path d="M 496.7,42.9 L 490.8,75.9 L 464.6,96.5 L 444.5,123.6 L 411.1,122.9 L 383.1,110.6 L 349.1,105.0 L 331.9,75.8 L 332.8,42.9 L 340.9,13.8 L 360.0,-8.2 L 380.1,-31.8 L 411.1,-41.9 L 443.3,-34.8 L 469.8,-15.8 L 494.0,8.6 L 482.6,42.9 Z" fill="none" stroke="#9aa0a6" stroke-opacity="0.18" stroke-width="1" /><path d="M 502.8,42.9 L 504.7,81.7 L 481.8,113.6 L 449.7,136.1 L 411.1,147.7 L 371.2,139.2 L 343.0,111.1 L 311.9,84.0 L 314.2,42.9 L 328.8,8.8 L 341.3,-26.8 L 378.1,-36.7 L 411.1,-54.5 L 446.5,-42.6 L 483.1,-29.1 L 507.4,3.0 L 518.0,42.9 Z" fill="none" stroke="#9aa0a6" stroke-opacity="0.18" stroke-width="1" /><path d="M 520.4,42.9 L 526.9,90.9 L 484.8,116.6 L 457.1,154.0 L 411.1,170.3 L 365.9,152.0 L 330.1,123.9 L 317.4,81.7 L 292.7,42.9 L 315.9,3.5 L 334.6,-33.6 L 370.8,-54.5 L 411.1,-71.9 L 455.4,-64.1 L 498.2,-44.1 L 525.2,-4.3 L 513.9,42.9 Z" fill="none" stroke="#9aa0a6" stroke-opacity="0.18" stroke-width="1" /><path d="M 126.0,123.3 L 127.1,131.8 L 123.4,140.1 L 115.0,143.9 L 106.5,145.2 L 98.0,143.9 L 91.8,137.9 L 85.9,131.8 L 86.1,123.3 L 84.7,114.2 L 92.4,109.2 L 97.8,102.3 L 106.5,102.6 L 114.1,104.9 L 122.0,107.7 L 127.0,114.8 L 127.2,123.3 Z" fill="none" stroke="#9aa0a6" stroke-opacity="0.18" stroke-width="1" /><path d="M 150.1,123.3 L 145.5,139.4 L 140.3,157.0 L 124.3,166.2 L 106.5,163.6 L 89.9,163.2 L 77.0,152.8 L 64.9,140.5 L 59.4,123.3 L 68.3,107.4 L 76.4,93.2 L 89.1,81.3 L 106.5,82.0 L 120.8,88.6 L 136.1,93.6 L 146.3,106.8 L 152.3,123.3 Z" fill="none" stroke="#9aa0a6" stroke-opacity="0.18" stroke-width="1" /><path d="M 168.3,123.3 L 167.6,148.6 L 157.3,174.0 L 128.5,176.4 L 106.5,186.4 L 78.9,189.8 L 62.4,167.3 L 42.8,149.6 L 42.8,123.3 L 49.1,99.5 L 57.8,74.6 L 83.9,68.7 L 106.5,55.6 L 131.1,63.8 L 157.0,72.7 L 170.8,96.6 L 167.9,123.3 Z" fill="none" stroke="#9aa0a6" stroke-opacity="0.18" stroke-width="1" /><path d="M 191.9,123.3 L 183.6,155.2 L 174.4,191.2 L 143.5,212.6 L 106.5,207.6 L 70.2,210.9 L 43.5,186.2 L 31.0,154.5 L 18.5,123.3 L 25.6,89.7 L 46.7,63.5 L 70.3,35.9 L 106.5,35.6 L 139.6,43.4 L 161.3,68.4 L 186.3,90.2 L 197.3,123.3 Z" fill="none" stroke="#9aa0a6" stroke-opacity="0.18" stroke-width="1" /><path d="M 217.4,123.3 L 215.9,168.6 L 186.0,202.8 L 143.0,211.5 L 106.5,227.3 L 61.8,231.1 L 36.8,192.9 L 14.5,161.4 L 1.1,123.3 L 9.3,83.0 L 34.9,51.6 L 65.9,25.2 L 106.5,5.7 L 143.7,33.4 L 183.2,46.6 L 218.7,76.8 L 211.1,123.3 Z" fill="none" stroke="#9aa0a6" stroke-opacity="0.18" stroke-width="1" /><path d="M 253.7,345.0 L 252.2,348.8 L 251.1,353.1 L 247.1,354.6 L 243.1,355.4 L 239.3,354.2 L 235.0,353.1 L 232.3,349.5 L 232.9,345.0 L 233.3,341.0 L 236.1,338.1 L 238.9,335.0 L 243.1,335.0 L 247.1,335.3 L 250.3,337.8 L 252.0,341.3 L 254.4,345.0 Z" fill="none" stroke="#9aa0a6" stroke-opacity="0.18" stroke-width="1" /><path d="M 263.5,345.0 L 261.9,352.8 L 258.4,360.3 L 251.5,365.3 L 243.1,366.4 L 235.7,362.9 L 228.2,360.0 L 222.6,353.5 L 223.0,345.0 L 225.2,337.6 L 228.0,329.9 L 235.3,326.1 L 243.1,323.4 L 252.0,323.5 L 259.3,328.8 L 263.2,336.7 L 264.6,345.0 Z" fill="none" stroke="#9aa0a6" stroke-opacity="0.18" stroke-width="1" /><path d="M 273.9,345.0 L 269.3,355.9 L 267.8,369.7 L 254.5,372.6 L 243.1,377.7 L 230.8,374.6 L 220.4,367.7 L 213.6,357.2 L 210.4,345.0 L 213.1,332.6 L 223.6,325.5 L 230.2,313.8 L 243.1,311.3 L 256.5,312.7 L 262.7,325.4 L 274.6,332.0 L 276.8,345.0 Z" fill="none" stroke="#9aa0a6" stroke-opacity="0.18" stroke-width="1" /><path d="M 279.5,345.0 L 282.3,361.3 L 272.3,374.3 L 258.4,382.1 L 243.1,387.3 L 225.5,387.5 L 212.2,376.0 L 203.7,361.3 L 200.4,345.0 L 207.8,330.4 L 213.3,315.3 L 226.7,305.4 L 243.1,305.2 L 259.8,304.8 L 275.5,312.6 L 281.1,329.3 L 284.5,345.0 Z" fill="none" stroke="#9aa0a6" stroke-opacity="0.18" stroke-width="1" /><path d="M 296.3,345.0 L 291.9,365.3 L 275.3,377.2 L 262.8,392.5 L 243.1,401.2 L 223.5,392.3 L 211.0,377.2 L 197.5,363.9 L 186.8,345.0 L 196.2,325.6 L 205.1,307.1 L 225.0,301.4 L 243.1,299.2 L 264.6,293.0 L 277.8,310.4 L 292.0,324.8 L 294.7,345.0 Z" fill="none" stroke="#9aa0a6" stroke-opacity="0.18" stroke-width="1" /><path d="M 301.4,345.0 L 304.1,370.3 L 285.2,387.2 L 269.2,408.0 L 243.1,415.3 L 221.3,397.7 L 197.8,390.3 L 185.1,369.1 L 174.2,345.0 L 192.5,324.1 L 199.6,301.5 L 220.1,289.6 L 243.1,280.0 L 268.3,284.2 L 287.2,300.9 L 293.8,324.0 L 302.3,345.0 Z" fill="none" stroke="#9aa0a6" stroke-opacity="0.18" stroke-width="1" /><path d="M 319.2,345.0 L 313.5,374.2 L 295.0,397.0 L 269.0,407.6 L 243.1,422.4 L 213.9,415.6 L 189.3,398.8 L 180.6,370.9 L 172.7,345.0 L 177.9,318.0 L 194.5,296.4 L 214.2,275.3 L 243.1,278.5 L 273.3,272.0 L 291.2,296.9 L 301.8,320.7 L 307.7,345.0 Z" fill="none" stroke="#9aa0a6" stroke-opacity="0.18" stroke-width="1" /><path d="M 328.7,345.0 L 310.5,373.0 L 295.5,397.4 L 277.4,427.8 L 243.1,419.9 L 212.0,420.0 L 185.3,402.8 L 167.9,376.2 L 150.3,345.0 L 175.0,316.8 L 189.1,291.0 L 211.6,269.1 L 243.1,269.2 L 274.9,268.1 L 302.7,285.4 L 319.6,313.3 L 329.7,345.0 Z" fill="none" stroke="#9aa0a6" stroke-opacity="0.18" stroke-width="1" /><path d="M 261.5,443.2 L 259.8,450.9 L 257.2,459.2 L 249.3,462.6 L 241.3,464.5 L 233.4,462.3 L 225.3,459.1 L 222.4,451.0 L 220.5,443.2 L 221.5,435.0 L 227.3,429.3 L 234.1,426.1 L 241.3,421.3 L 248.9,424.8 L 256.0,428.5 L 259.8,435.6 L 262.6,443.2 Z" fill="none" stroke="#9aa0a6" stroke-opacity="0.18" stroke-width="1" /><path d="M 283.4,443.2 L 275.2,457.3 L 274.4,476.4 L 258.4,484.6 L 241.3,481.6 L 226.9,478.0 L 215.4,469.1 L 201.0,459.9 L 204.1,443.2 L 206.9,429.0 L 212.4,414.4 L 226.5,407.6 L 241.3,404.1 L 256.4,406.7 L 270.4,414.0 L 278.1,428.0 L 281.2,443.2 Z" fill="none" stroke="#9aa0a6" stroke-opacity="0.18" stroke-width="1" /><path d="M 306.5,443.2 L 300.6,467.8 L 283.5,485.5 L 266.2,503.5 L 241.3,506.3 L 216.8,502.3 L 192.6,491.9 L 179.4,468.9 L 176.3,443.2 L 178.2,417.1 L 193.8,395.8 L 214.5,378.6 L 241.3,384.1 L 266.1,383.2 L 290.4,394.1 L 304.7,417.0 L 301.8,443.2 Z" fill="none" stroke="#9aa0a6" stroke-opacity="0.18" stroke-width="1" /><path d="M 328.6,443.2 L 318.0,475.0 L 298.6,500.6 L 273.9,522.1 L 241.3,520.3 L 213.2,510.8 L 185.9,498.6 L 170.0,472.7 L 154.6,443.2 L 163.3,410.9 L 184.2,386.2 L 211.4,371.2 L 241.3,351.5 L 271.7,369.7 L 294.1,390.4 L 311.7,414.0 L 314.0,443.2 Z" fill="none" stroke="#9aa0a6" stroke-opacity="0.18" stroke-width="1" /><path d="M 335.3,443.2 L 338.0,483.3 L 311.8,513.8 L 278.8,533.9 L 241.3,557.4 L 201.7,538.8 L 160.3,524.2 L 150.3,480.9 L 129.9,443.2 L 146.7,404.1 L 169.1,371.0 L 199.1,341.4 L 241.3,342.2 L 281.3,346.6 L 320.2,364.3 L 336.8,403.6 L 337.0,443.2 Z" fill="none" stroke="#9aa0a6" stroke-opacity="0.18" stroke-width="1" /><path d="M 512.2,505.8 L 511.2,514.7 L 504.0,520.2 L 497.6,525.0 L 489.6,528.0 L 481.3,525.9 L 475.4,520.0 L 467.5,515.0 L 467.6,505.8 L 466.4,496.2 L 474.2,490.3 L 481.8,486.9 L 489.6,484.8 L 498.9,483.3 L 506.0,489.4 L 510.1,497.3 L 513.4,505.8 Z" fill="none" stroke="#9aa0a6" stroke-opacity="0.18" stroke-width="1" /><path d="M 531.3,505.8 L 527.2,521.3 L 523.6,539.8 L 506.4,546.4 L 489.6,549.9 L 471.7,549.0 L 456.4,539.0 L 450.7,521.9 L 444.6,505.8 L 446.4,487.9 L 455.2,471.3 L 471.5,462.0 L 489.6,464.5 L 505.1,468.4 L 519.5,475.9 L 526.2,490.6 L 529.8,505.8 Z" fill="none" stroke="#9aa0a6" stroke-opacity="0.18" stroke-width="1" /><path d="M 551.8,505.8 L 548.7,530.2 L 536.3,552.5 L 516.6,571.0 L 489.6,577.0 L 465.5,564.0 L 439.9,555.5 L 430.7,530.2 L 423.9,505.8 L 427.6,480.1 L 438.6,454.7 L 466.6,450.1 L 489.6,440.7 L 516.1,441.9 L 538.1,457.3 L 551.4,480.2 L 557.7,505.8 Z" fill="none" stroke="#9aa0a6" stroke-opacity="0.18" stroke-width="1" /><path d="M 573.7,505.8 L 569.5,538.8 L 555.5,571.6 L 522.4,584.9 L 489.6,591.0 L 456.9,584.8 L 428.7,566.7 L 398.2,543.7 L 411.3,505.8 L 416.8,475.6 L 431.8,448.0 L 453.6,418.8 L 489.6,424.8 L 525.6,418.9 L 555.2,440.2 L 572.9,471.3 L 572.0,505.8 Z" fill="none" stroke="#9aa0a6" stroke-opacity="0.18" stroke-width="1" /><path d="M 612.7,505.8 L 600.2,551.6 L 571.6,587.7 L 533.5,611.7 L 489.6,624.8 L 451.7,597.3 L 414.1,581.3 L 376.9,552.5 L 381.7,505.8 L 389.0,464.1 L 404.8,421.0 L 451.4,413.6 L 489.6,406.2 L 534.5,397.4 L 574.8,420.6 L 591.2,463.7 L 602.4,505.8 Z" fill="none" stroke="#9aa0a6" stroke-opacity="0.18" stroke-width="1" /><path d="M 623.3,505.8 L 613.1,556.9 L 583.0,599.2 L 539.2,625.4 L 489.6,635.4 L 435.5,636.3 L 391.2,604.2 L 359.4,559.7 L 348.5,505.8 L 368.2,455.5 L 396.5,412.7 L 438.8,383.2 L 489.6,365.1 L 538.2,388.5 L 592.4,403.0 L 616.9,453.0 L 627.2,505.8 Z" fill="none" stroke="#9aa0a6" stroke-opacity="0.18" stroke-width="1" /><path d="M 632.3,505.8 L 636.8,566.7 L 601.0,617.2 L 551.3,654.8 L 489.6,668.4 L 422.5,667.9 L 377.1,618.3 L 351.2,563.1 L 320.3,505.8 L 362.9,453.3 L 386.5,402.7 L 430.8,363.9 L 489.6,348.2 L 548.6,363.4 L 597.6,397.8 L 626.4,449.1 L 665.2,505.8 Z" fill="none" stroke="#9aa0a6" stroke-opacity="0.18" stroke-width="1" /><path d="M 403.6,192.2 L 401.6,197.1 L 399.0,201.4 L 394.3,203.2 L 389.8,205.3 L 385.3,202.9 L 380.5,201.5 L 377.1,197.4 L 377.2,192.2 L 377.3,187.0 L 380.7,183.2 L 384.6,179.7 L 389.8,178.6 L 395.0,179.5 L 399.0,183.0 L 402.1,187.1 L 403.2,192.2 Z" fill="none" stroke="#9aa0a6" stroke-opacity="0.18" stroke-width="1" /><path d="M 417.7,192.2 L 412.5,201.6 L 410.0,212.5 L 399.8,216.4 L 389.8,218.8 L 380.8,213.9 L 369.5,212.5 L 364.9,202.5 L 364.2,192.2 L 368.1,183.2 L 371.8,174.2 L 378.5,164.9 L 389.8,163.1 L 398.8,170.2 L 406.1,175.9 L 414.5,181.9 L 414.9,192.2 Z" fill="none" stroke="#9aa0a6" stroke-opacity="0.18" stroke-width="1" /><path d="M 426.0,192.2 L 425.2,206.9 L 420.9,223.3 L 404.8,228.4 L 389.8,231.9 L 375.7,226.1 L 362.7,219.3 L 353.5,207.2 L 349.5,192.2 L 355.2,177.9 L 365.2,167.6 L 373.3,152.5 L 389.8,157.4 L 406.0,153.0 L 417.8,164.2 L 426.5,177.0 L 432.3,192.2 Z" fill="none" stroke="#9aa0a6" stroke-opacity="0.18" stroke-width="1" /><path d="M 445.0,192.2 L 440.3,213.1 L 430.4,232.9 L 411.5,244.7 L 389.8,244.2 L 367.9,245.0 L 350.7,231.2 L 339.3,213.1 L 342.8,192.2 L 336.8,170.2 L 352.8,155.2 L 368.1,139.9 L 389.8,141.5 L 409.6,144.3 L 431.2,150.7 L 434.5,173.7 L 435.9,192.2 Z" fill="none" stroke="#9aa0a6" stroke-opacity="0.18" stroke-width="1" /><path d="M 446.9,192.2 L 448.5,216.5 L 441.0,243.4 L 417.2,258.3 L 389.8,259.3 L 366.4,248.7 L 341.7,240.2 L 326.6,218.3 L 325.7,192.2 L 326.7,166.1 L 343.1,145.5 L 365.2,132.9 L 389.8,127.3 L 412.5,137.3 L 434.4,147.6 L 445.8,169.0 L 455.8,192.2 Z" fill="none" stroke="#9aa0a6" stroke-opacity="0.18" stroke-width="1" /><path d="M 464.2,192.2 L 465.4,223.5 L 445.5,248.0 L 418.5,261.7 L 389.8,268.2 L 356.7,272.0 L 328.0,253.9 L 315.6,222.9 L 315.1,192.2 L 318.5,162.7 L 330.2,132.6 L 363.6,129.0 L 389.8,106.1 L 419.1,121.3 L 447.7,134.2 L 465.2,160.9 L 474.8,192.2 Z" fill="none" stroke="#9aa0a6" stroke-opacity="0.18" stroke-width="1" /><path d="M 482.1,192.2 L 477.9,228.7 L 460.9,263.4 L 428.7,286.2 L 389.8,290.3 L 357.9,269.2 L 322.6,259.3 L 304.1,227.7 L 300.9,192.2 L 296.8,153.7 L 318.0,120.4 L 354.2,106.4 L 389.8,100.7 L 425.1,106.8 L 446.5,135.4 L 466.7,160.3 L 478.8,192.2 Z" fill="none" stroke="#9aa0a6" stroke-opacity="0.18" stroke-width="1" /><path d="M 498.1,192.2 L 497.0,236.6 L 463.3,265.7 L 433.3,297.4 L 389.8,307.6 L 352.6,281.9 L 312.4,269.6 L 288.6,234.1 L 281.2,192.2 L 288.7,150.3 L 316.1,118.5 L 345.4,85.0 L 389.8,84.5 L 428.1,99.7 L 467.2,114.7 L 498.3,147.2 L 498.9,192.2 Z" fill="none" stroke="#9aa0a6" stroke-opacity="0.18" stroke-width="1" /><path d="M 516.1,192.2 L 497.9,237.0 L 474.8,277.3 L 430.6,290.7 L 389.8,305.6 L 349.5,289.3 L 302.2,279.7 L 290.8,233.2 L 274.7,192.2 L 271.6,143.2 L 304.1,106.6 L 345.3,84.9 L 389.8,76.0 L 440.5,69.6 L 470.7,111.2 L 503.5,145.1 L 510.7,192.2 Z" fill="none" stroke="#9aa0a6" stroke-opacity="0.18" stroke-width="1" /><path d="M 188.5,116.6 L 186.7,121.7 L 183.4,125.6 L 180.1,130.3 L 174.4,130.5 L 169.5,128.6 L 165.9,125.1 L 162.0,121.7 L 161.4,116.6 L 163.6,112.1 L 164.5,106.7 L 169.3,104.2 L 174.4,103.3 L 179.7,103.8 L 183.2,107.8 L 187.3,111.3 L 188.5,116.6 Z" fill="none" stroke="#9aa0a6" stroke-opacity="0.18" stroke-width="1" /><path d="M 204.7,116.6 L 202.4,128.2 L 194.5,136.7 L 184.1,140.0 L 174.4,145.8 L 165.4,138.3 L 157.1,133.9 L 151.0,126.3 L 144.6,116.6 L 148.8,106.0 L 154.4,96.6 L 164.8,93.3 L 174.4,90.5 L 184.2,93.0 L 192.8,98.2 L 201.4,105.4 L 199.4,116.6 Z" fill="none" stroke="#9aa0a6" stroke-opacity="0.18" stroke-width="1" /><path d="M 212.6,116.6 L 209.6,131.2 L 203.9,146.1 L 189.5,153.0 L 174.4,158.5 L 158.0,156.3 L 149.2,141.9 L 136.5,132.3 L 130.1,116.6 L 135.3,100.4 L 147.9,90.0 L 158.5,78.2 L 174.4,75.9 L 188.9,81.8 L 205.6,85.4 L 210.0,101.9 L 213.0,116.6 Z" fill="none" stroke="#9aa0a6" stroke-opacity="0.18" stroke-width="1" /><path d="M 229.6,116.6 L 228.1,138.8 L 209.1,151.2 L 194.3,164.5 L 174.4,166.8 L 156.2,160.7 L 133.6,157.4 L 125.4,136.9 L 116.1,116.6 L 125.5,96.3 L 137.2,79.4 L 152.2,63.0 L 174.4,62.1 L 196.9,62.4 L 217.0,74.0 L 224.2,96.0 L 221.6,116.6 Z" fill="none" stroke="#9aa0a6" stroke-opacity="0.18" stroke-width="1" /><path d="M 249.9,116.6 L 235.8,142.0 L 222.9,165.1 L 203.1,185.8 L 174.4,186.1 L 151.4,172.1 L 124.3,166.7 L 105.2,145.3 L 115.1,116.6 L 108.9,89.4 L 132.2,74.3 L 151.3,60.8 L 174.4,46.5 L 197.4,61.2 L 222.5,68.5 L 229.3,93.9 L 236.2,116.6 Z" fill="none" stroke="#9aa0a6" stroke-opacity="0.18" stroke-width="1" /><path d="M 262.1,116.6 L 256.6,150.7 L 233.8,176.0 L 204.6,189.5 L 174.4,189.4 L 145.3,186.8 L 121.2,169.8 L 98.0,148.3 L 83.8,116.6 L 101.1,86.2 L 117.2,59.4 L 145.6,47.0 L 174.4,33.6 L 207.1,37.6 L 229.3,61.7 L 249.2,85.6 L 258.6,116.6 Z" fill="none" stroke="#9aa0a6" stroke-opacity="0.18" stroke-width="1" /><path d="M 268.8,116.6 L 268.5,155.6 L 238.0,180.2 L 209.2,200.5 L 174.4,210.8 L 139.2,201.6 L 111.0,180.0 L 90.2,151.5 L 81.6,116.6 L 91.8,82.4 L 99.9,42.1 L 141.5,37.0 L 174.4,10.8 L 206.4,39.4 L 237.5,53.6 L 260.4,81.0 L 270.5,116.6 Z" fill="none" stroke="#9aa0a6" stroke-opacity="0.18" stroke-width="1" /></svg>